HIERARCHY
ROOT Hips
{
	OFFSET 0.000000 0.000000 0.000000
	CHANNELS 6 Xposition Yposition Zposition Zrotation Yrotation Xrotation 
	JOINT LHipJoint
	{
		OFFSET 0.000000 0.000000 0.000000
		CHANNELS 3 Zrotation Yrotation Xrotation
		JOINT LeftUpLeg
		{
			OFFSET 1.363060 -1.794630 0.839290
			CHANNELS 3 Zrotation Yrotation Xrotation
			JOINT LeftLeg
			{
				OFFSET 2.448110 -6.726130 0.000000
				CHANNELS 3 Zrotation Yrotation Xrotation
				JOINT LeftFoot
				{
					OFFSET 2.562200 -7.039590 0.000000
					CHANNELS 3 Zrotation Yrotation Xrotation
					JOINT LeftToeBase
					{
						OFFSET 0.157640 -0.433110 2.322550
						CHANNELS 3 Zrotation Yrotation Xrotation
						End Site
						{
							OFFSET 0.000000 0.000000 0.000000
						}
					}
				}
			}
		}
	}
	JOINT RHipJoint
	{
		OFFSET 0.000000 0.000000 0.000000
		CHANNELS 3 Zrotation Yrotation Xrotation
		JOINT RightUpLeg
		{
			OFFSET -1.305520 -1.794630 0.839290
			CHANNELS 3 Zrotation Yrotation Xrotation
			JOINT RightLeg
			{
				OFFSET -2.542530 -6.985550 0.000000
				CHANNELS 3 Zrotation Yrotation Xrotation
				JOINT RightFoot
				{
					OFFSET -2.568260 -7.056230 0.000000
					CHANNELS 3 Zrotation Yrotation Xrotation
					JOINT RightToeBase
					{
						OFFSET -0.164730 -0.452590 2.363150
						CHANNELS 3 Zrotation Yrotation Xrotation
						End Site
						{
							OFFSET 0.000000 0.000000 0.000000
						}
					}
				}
			}
		}
	}
	JOINT LowerBack
	{
		OFFSET 0.000000 0.000000 0.000000
		CHANNELS 3 Zrotation Yrotation Xrotation
		JOINT Spine
		{
			OFFSET 0.028270 2.035590 -0.193380
			CHANNELS 3 Zrotation Yrotation Xrotation
			JOINT Spine1
			{
				OFFSET 0.056720 2.048850 -0.042750
				CHANNELS 3 Zrotation Yrotation Xrotation
				JOINT Neck
				{
					OFFSET 0.000000 0.000000 0.000000
					CHANNELS 3 Zrotation Yrotation Xrotation
					JOINT Neck1
					{
						OFFSET -0.054170 1.746240 0.172020
						CHANNELS 3 Zrotation Yrotation Xrotation
						JOINT Head
						{
							OFFSET 0.104070 1.761360 -0.123970
							CHANNELS 3 Zrotation Yrotation Xrotation
							End Site
							{
								OFFSET 0.000000 0.000000 0.000000
							}
						}
					}
				}
				JOINT LeftShoulder
				{
					OFFSET 0.000000 0.000000 0.000000
					CHANNELS 3 Zrotation Yrotation Xrotation
					JOINT LeftArm
					{
						OFFSET 3.362410 1.200890 -0.311210
						CHANNELS 3 Zrotation Yrotation Xrotation
						JOINT LeftForeArm
						{
							OFFSET 4.983000 -0.000000 -0.000000
							CHANNELS 3 Zrotation Yrotation Xrotation
							JOINT LeftHand
							{
								OFFSET 3.483560 -0.000000 -0.000000
								CHANNELS 3 Zrotation Yrotation Xrotation
								JOINT LeftFingerBase
								{
									OFFSET 0.000000 0.000000 0.000000
									CHANNELS 3 Zrotation Yrotation Xrotation
									JOINT LeftHandIndex1
									{
										OFFSET 0.715260 -0.000000 -0.000000
										CHANNELS 3 Zrotation Yrotation Xrotation
										End Site
										{
											OFFSET 0.000000 0.000000 0.000000
										}
									}
								}
								JOINT LThumb
								{
									OFFSET 0.000000 0.000000 0.000000
									CHANNELS 3 Zrotation Yrotation Xrotation
									End Site
									{
										OFFSET 0.000000 0.000000 0.000000
									}
								}
							}
						}
					}
				}
				JOINT RightShoulder
				{
					OFFSET 0.000000 0.000000 0.000000
					CHANNELS 3 Zrotation Yrotation Xrotation
					JOINT RightArm
					{
						OFFSET -3.136600 1.374050 -0.404650
						CHANNELS 3 Zrotation Yrotation Xrotation
						JOINT RightForeArm
						{
							OFFSET -5.241900 -0.000000 -0.000000
							CHANNELS 3 Zrotation Yrotation Xrotation
							JOINT RightHand
							{
								OFFSET -3.444170 -0.000000 -0.000000
								CHANNELS 3 Zrotation Yrotation Xrotation
								JOINT RightFingerBase
								{
									OFFSET 0.000000 0.000000 0.000000
									CHANNELS 3 Zrotation Yrotation Xrotation
									JOINT RightHandIndex1
									{
										OFFSET -0.622530 -0.000000 -0.000000
										CHANNELS 3 Zrotation Yrotation Xrotation
										End Site
										{
											OFFSET 0.000000 0.000000 0.000000
										}
									}
								}
								JOINT RThumb
								{
									OFFSET 0.000000 0.000000 0.000000
									CHANNELS 3 Zrotation Yrotation Xrotation
									End Site
									{
										OFFSET 0.000000 0.000000 0.000000
									}
								}
							}
						}
					}
				}
			}
		}
	}
}
MOTION
Frames: 6
Frame Time: 0.008333
9.476767 15.881812 -2.888801 -170.153684 57.410905 -143.588259 -11.433165 0.217883 0.788924 -22.224549 -7.631736 -33.622370 -2.407450 0.972567 41.332215 2.884061 5.630294 -33.374018 176.282000 0.000001 -8.998100 9.256253 -0.183748 -1.412089 -1.947683 -0.300848 -42.076211 -1.795921 -5.079218 79.511674 -2.419062 -12.189777 -14.315881 1.165500 -0.000000 -45.961600 3.684902 -0.372631 2.484331 0.668619 -0.539557 -1.791173 -3.244372 -0.497531 2.388860 -0.093517 -10.927135 -3.620441 -2.524948 -0.228221 0.871045 0.000000 0.000000 0.000000 0.806504 12.902649 -3.031488 -80.327214 -28.906429 19.913269 -178.224900 -73.828110 179.979752 2.888493 -2.591768 -0.084946 -0.183342 0.676318 0.000000 0.000000 0.000000 0.000000 0.000000 0.000000 0.000000 -0.283607 -8.883160 1.399874 66.258392 -29.158670 11.636304 2.388637 45.907842 0.020853 -2.249161 11.329435 -0.234975 0.113273 -0.073332 -0.000000 0.000000 0.000000 0.000000 0.000000 0.000000 0.000000 
9.672015 15.976675 -3.034482 -170.357195 56.567074 -143.437412 -11.679387 0.201563 0.682715 -21.570600 -7.508127 -32.230700 -2.353870 0.886054 40.024262 2.606531 5.156369 -31.497032 176.763500 -0.000000 -7.345200 8.926046 0.099820 -1.202594 -1.891561 0.672462 -43.968570 -1.620030 -4.943466 77.728616 -2.417823 -11.881488 -14.314176 1.119100 0.000000 -46.620801 4.373647 -0.736330 2.584451 0.887792 -0.942787 -1.757055 -2.893358 -0.929714 2.434337 -0.509791 -11.575330 -3.422569 -2.479833 -0.228052 0.918113 0.000000 0.000000 0.000000 2.113949 12.712997 -3.253251 -79.662031 -29.588587 17.699942 -178.088337 -71.257826 179.981042 2.552327 -2.498256 -0.073047 -0.157854 0.695557 -0.000000 0.000000 0.000000 0.000000 0.000000 0.000000 0.000000 -0.990659 -9.878503 1.228044 63.984250 -30.449461 13.933707 2.158949 49.474700 0.018875 -1.884789 11.234265 -0.195890 0.102331 -0.076188 -0.000000 0.000000 0.000000 0.000000 0.000000 0.000000 0.000000 
9.866212 16.078869 -3.181685 -170.515388 55.734714 -143.232540 -11.944369 0.186479 0.566376 -20.859206 -7.365074 -30.984712 -2.270256 0.830944 38.863162 2.302377 4.655529 -29.270840 177.279300 -0.000000 -4.483500 8.567576 0.361403 -0.983186 -1.818038 1.654314 -45.778453 -1.414681 -4.783106 75.526343 -2.432344 -11.625548 -14.258339 1.062600 0.000000 -47.555800 5.077251 -1.102603 2.704069 1.106096 -1.346905 -1.730271 -2.570882 -1.363685 2.456371 -0.850663 -12.158081 -3.240121 -2.433701 -0.227604 0.959526 0.000000 0.000000 0.000000 3.394170 12.460299 -3.433836 -78.636445 -29.979751 15.209669 -178.007175 -68.740324 179.981080 2.358648 -2.416557 -0.065735 -0.134345 0.712907 -0.000000 0.000000 0.000000 0.000000 0.000000 0.000000 0.000000 -1.649275 -10.805464 1.057839 61.820285 -31.436791 15.796438 1.939183 52.841553 0.016752 -1.460012 11.077233 -0.150612 0.090573 -0.080006 -0.000000 0.000000 0.000000 0.000000 0.000000 0.000000 0.000000 
10.060324 16.187189 -3.329813 -170.647598 54.914547 -142.993970 -12.224875 0.178087 0.433315 -20.114656 -7.165146 -29.898444 -2.157748 0.810969 37.860976 1.976823 4.121158 -26.665033 177.819000 -0.000001 -0.066500 8.186311 0.594814 -0.750932 -1.743174 2.645005 -47.483109 -1.183333 -4.597917 72.890975 -2.460943 -11.407764 -14.150520 0.994200 0.000000 -48.667600 5.785638 -1.466436 2.843797 1.320937 -1.745610 -1.707775 -2.281886 -1.791338 2.463762 -1.119237 -12.706499 -3.084630 -2.384021 -0.226535 0.992191 0.000000 0.000000 0.000000 4.633895 12.144079 -3.572453 -77.279721 -30.105662 12.533818 -177.981434 -66.305355 179.980124 2.276337 -2.353182 -0.062111 -0.113236 0.728349 -0.000000 0.000000 0.000000 0.000000 0.000000 0.000000 0.000000 -2.269737 -11.679553 0.899720 59.836906 -32.136801 17.241176 1.734984 55.962853 0.014697 -1.027349 10.893385 -0.105543 0.078810 -0.084562 -0.000000 0.000000 0.000000 0.000000 0.000000 0.000000 0.000000 
10.255353 16.300118 -3.478630 -170.765966 54.108519 -142.738077 -12.517473 0.181058 0.277489 -19.362175 -6.868605 -28.974529 -2.016721 0.826880 37.010108 1.641212 3.566522 -23.649022 -1.639100 0.000000 -6.271900 7.788355 0.794048 -0.502370 -1.683013 3.641102 -49.059998 -0.929857 -4.386877 69.810774 -2.500049 -11.207495 -13.980651 0.908900 0.000000 -49.869199 6.488294 -1.822927 3.002347 1.529534 -2.133165 -1.688593 -2.029633 -2.205739 2.457910 -1.318245 -13.230218 -2.959821 -2.331515 -0.224841 1.015316 0.000000 0.000000 0.000000 5.836862 11.757679 -3.670623 -75.637571 -29.972255 9.751822 -178.006597 -63.971084 179.978537 2.266236 -2.314102 -0.060980 -0.094297 0.741905 -0.000000 0.000000 0.000000 0.000000 0.000000 0.000000 0.000000 -2.848592 -12.496123 0.759644 58.074221 -32.617646 18.273572 1.548105 58.860061 0.012834 -0.614596 10.711696 -0.063776 0.067559 -0.089881 -0.000000 0.000000 0.000000 0.000000 0.000000 0.000000 0.000000 
10.452357 16.415758 -3.628070 -170.881356 53.323997 -142.480353 -12.817589 0.198352 0.093956 -18.628391 -6.439905 -28.206956 -1.849044 0.876137 36.289951 1.315435 3.026627 -20.228257 -1.128400 0.000000 -14.660800 7.380264 0.954319 -0.233732 -1.651772 4.635197 -50.490384 -0.658607 -4.147805 66.280860 -2.544207 -11.000404 -13.728173 0.799801 -0.000000 -51.062600 7.175261 -2.168430 3.176167 1.729501 -2.505610 -1.671258 -1.815590 -2.602263 2.443679 -1.453953 -13.750452 -2.872580 -2.275661 -0.222397 1.027290 0.000000 0.000000 0.000000 7.002578 11.314422 -3.730942 -73.758668 -29.599558 6.945391 -178.074562 -61.758290 179.976721 2.289991 -2.302979 -0.061347 -0.077091 0.753509 -0.000000 0.000000 0.000000 0.000000 0.000000 0.000000 0.000000 -3.386974 -13.264337 0.638092 56.534757 -32.932994 18.948370 1.376970 61.575921 0.011242 -0.253517 10.563581 -0.028310 0.057272 -0.096147 -0.000000 0.000000 0.000000 0.000000 0.000000 0.000000 0.000000 
